<svg width="24" height="24" viewBox="0 0 24 24" fill="none" xmlns="http://www.w3.org/2000/svg">
<g clip-path="url(#clip0_108_8148)">
<g clip-path="url(#clip1_108_8148)">
<path d="M1.99579 18.4036C0.897104 16.6173 0.263428 14.5144 0.263428 12.2634C0.263428 5.78153 5.51804 0.526917 12 0.526917C18.4819 0.526917 23.7365 5.78153 23.7365 12.2634C23.7365 14.5144 23.1028 16.6173 22.0041 18.4036C18.9284 17.812 15.548 17.485 12 17.485C8.45188 17.485 5.07148 17.812 1.99579 18.4036Z" fill="#024C67"/>
<path d="M8.83833 3.35331C8.83833 3.61788 8.62387 3.83235 8.35929 3.83235C8.09472 3.83235 7.88025 3.61788 7.88025 3.35331C7.88025 3.08873 8.09472 2.87427 8.35929 2.87427C8.62387 2.87427 8.83833 3.08873 8.83833 3.35331Z" fill="#3691BB"/>
<path d="M16.503 2.87424C16.503 3.13882 16.2885 3.35329 16.024 3.35329C15.7594 3.35329 15.5449 3.13882 15.5449 2.87424C15.5449 2.60967 15.7594 2.3952 16.024 2.3952C16.2885 2.3952 16.503 2.60967 16.503 2.87424Z" fill="#FFF5F5"/>
<path d="M22.2515 9.58082C22.2515 9.84539 22.037 10.0599 21.7724 10.0599C21.5079 10.0599 21.2934 9.84539 21.2934 9.58082C21.2934 9.31624 21.5079 9.10178 21.7724 9.10178C22.037 9.10178 22.2515 9.31624 22.2515 9.58082ZM2.61076 7.18561C2.34618 7.18561 2.13171 7.40007 2.13171 7.66465C2.13171 7.92922 2.34618 8.14369 2.61076 8.14369C2.87533 8.14369 3.0898 7.92922 3.0898 7.66465C3.0898 7.40007 2.87533 7.18561 2.61076 7.18561Z" fill="#FDF061"/>
<path d="M19.6382 18.688C20.0651 15.442 20.971 10.8397 22.0195 10.8397C22.6073 10.8397 23.1502 12.2859 23.5891 14.1287C23.366 15.5255 22.8965 16.84 22.2265 18.0263C21.8984 18.6073 21.2484 18.9299 20.5891 18.8271C20.2748 18.7781 19.9578 18.7317 19.6382 18.688ZM3.56877 18.8027C3.55952 17.0199 2.42156 8.45583 1.00379 8.15198C0.525128 9.4315 0.263428 10.8169 0.263428 12.2635C0.263428 14.3545 0.810302 16.3178 1.76877 18.0181C2.10213 18.6096 2.77231 18.9262 3.44321 18.8221C3.48498 18.8155 3.52685 18.8091 3.56877 18.8027Z" fill="#025F80"/>
<path d="M21.1976 17.8812V17.8947C21.1957 18.5963 20.4762 19.1617 19.5988 19.1617H15.994C15.2438 19.1617 14.6092 18.7484 14.4396 18.1901C14.3557 18.199 14.2701 18.2036 14.1832 18.2036H9.81679C9.72989 18.2036 9.64428 18.199 9.56031 18.1901C9.39078 18.7484 8.75614 19.1617 8.00596 19.1617H4.40117C3.52371 19.1617 2.80424 18.5963 2.80237 17.8947C2.80237 17.8902 2.80237 17.8857 2.80237 17.8812C2.80237 15.6086 4.32515 4.13313 6.20357 4.13313C7.13664 4.13313 7.98196 6.96455 8.59648 10.0931C9.33842 5.36819 10.586 0 12 0C13.414 0 14.6615 5.36819 15.4035 10.0931C16.018 6.96455 16.8633 4.13313 17.7964 4.13313C19.6748 4.13313 21.1976 15.6086 21.1976 17.8812Z" fill="#22B27F"/>
<path d="M12.5993 0.315784C10.7005 3.95142 9.30824 14.8688 9.30824 17.3718V17.3896C9.309 17.68 9.40246 17.9528 9.56601 18.1907C8.62019 18.093 7.88227 17.4508 7.88021 16.6689C7.88021 16.6635 7.88021 16.6581 7.88021 16.6526C7.88021 13.8999 9.72472 0 12 0C12.2035 0 12.4036 0.111234 12.5993 0.315784ZM12 5.26946C11.7354 5.26946 11.5209 5.48393 11.5209 5.7485V18.2036H12.479V5.7485C12.479 5.48393 12.2645 5.26946 12 5.26946ZM15.5741 18.475C15.5741 16.4086 16.7236 7.39535 18.2911 4.39387C18.1296 4.22501 17.9644 4.13317 17.7964 4.13317C15.918 4.13317 14.3952 15.6087 14.3952 17.8813V17.8947C14.3969 18.5403 15.0061 19.0705 15.7869 19.1511C15.6519 18.9547 15.5747 18.7295 15.5741 18.4897C15.5741 18.4847 15.5741 18.4799 15.5741 18.475ZM17.7964 8.4835C17.5779 8.4835 17.4009 8.66055 17.4009 8.87899V19.1617H18.1919V8.87899C18.1919 8.66055 18.0148 8.4835 17.7964 8.4835ZM6.20357 4.13313C4.32515 4.13313 2.80237 15.6086 2.80237 17.8812V17.8947C2.80409 18.5402 3.41329 19.0704 4.19413 19.1511C4.05909 18.9546 3.98191 18.7294 3.98129 18.4897C3.98129 18.4848 3.98129 18.4799 3.98129 18.475C3.98129 16.4086 5.13075 7.39535 6.69832 4.39387C6.53679 4.22496 6.37161 4.13313 6.20357 4.13313ZM6.20357 8.4835C5.98512 8.4835 5.80807 8.66055 5.80807 8.87899V16.5511L6.59906 19.1617V8.87899C6.59906 8.66055 6.42201 8.4835 6.20357 8.4835Z" fill="#059B7E"/>
<path d="M22.2358 18.0101C22.0739 18.2977 21.9004 18.5778 21.7157 18.8497L17.6813 14.6978C17.4969 14.5081 17.5012 14.2048 17.691 14.0204C17.8808 13.836 18.1816 13.8408 18.3659 14.0305L22.2358 18.0101ZM6.31206 14.0204C6.12232 13.8361 5.81903 13.8404 5.6347 14.0302L1.76538 18.0122C1.9272 18.2997 2.10085 18.5798 2.28557 18.8516L6.32184 14.6978C6.50612 14.5081 6.50181 14.2048 6.31206 14.0204Z" fill="#CFF09A"/>
<path d="M12.3387 8.0034L18.5253 14.19C18.6386 14.3032 18.6877 14.4656 18.6563 14.6227L17.8255 18.7766C17.7807 19.0005 17.5841 19.1617 17.3558 19.1617H6.64421C6.41586 19.1617 6.21926 19.0005 6.17447 18.7766L5.34366 14.6227C5.31224 14.4656 5.36144 14.3032 5.47468 14.19L11.6613 8.0034C11.8483 7.81633 12.1517 7.81633 12.3387 8.0034Z" fill="#FCB30B"/>
<path d="M14.8682 18.1044H9.13166C8.95489 18.1044 8.83901 17.9195 8.91614 17.7604L11.7844 11.8425C11.8717 11.6624 12.1282 11.6624 12.2155 11.8425L15.0838 17.7604C15.1608 17.9195 15.045 18.1044 14.8682 18.1044Z" fill="#FC5426"/>
<path d="M10.5153 18.1044H9.13168C8.95492 18.1044 8.83904 17.9195 8.91612 17.7604L11.7844 11.8425C11.8717 11.6624 12.1282 11.6624 12.2155 11.8425L12.6917 12.8251L10.2996 17.7604C10.2226 17.9195 10.3385 18.1044 10.5153 18.1044Z" fill="#E55920"/>
<path d="M7.54611 19.1617H6.64421C6.41586 19.1617 6.21926 19.0005 6.17447 18.7766L5.34366 14.6227C5.31224 14.4656 5.36144 14.3032 5.47468 14.19L11.6613 8.0034C11.8483 7.81633 12.1517 7.81633 12.3387 8.0034L12.9345 8.59913L9.86002 11.6736C7.89792 13.6356 7.03368 16.4388 7.54611 19.1617Z" fill="#FD9D01"/>
<path d="M1.85107 18.1617C4.97174 17.5717 8.40097 17.2455 12 17.2455C15.599 17.2455 19.0283 17.5717 22.1489 18.1617C21.3329 19.5628 20.2351 20.7795 18.9331 21.7343C16.725 21.4626 14.4003 21.3175 12 21.3175C9.59972 21.3175 7.27493 21.4626 5.06688 21.7343C3.76489 20.7795 2.66707 19.5628 1.85107 18.1617Z" fill="#509C49"/>
<path d="M10.4341 21.532C11.1355 21.4395 11.8441 21.3559 12.5593 21.2817C14.6942 21.387 16.7706 21.5797 18.7704 21.8515C20.1437 20.88 21.2991 19.6209 22.1489 18.1618C19.8761 17.732 17.4395 17.4422 14.8929 17.3165C14.2056 17.3878 13.5263 17.4705 12.8561 17.5641C12.1736 17.6595 11.6207 17.9418 11.2043 18.3355C10.8901 18.6326 11.1025 19.1617 11.535 19.1617H11.6962C11.9513 19.1617 12.1741 19.3543 12.1906 19.6088C12.2086 19.8878 11.9877 20.1198 11.7126 20.1198H10.7552C10.4897 20.1198 10.2717 20.3357 10.2759 20.6011C10.281 20.9168 10.3333 21.2317 10.4341 21.532ZM18.4192 18.2036H19.3773C19.6418 18.2036 19.8563 18.4181 19.8563 18.6827C19.8563 18.9472 19.6418 19.1617 19.3773 19.1617H18.4192C18.1546 19.1617 17.9401 18.9472 17.9401 18.6827C17.9401 18.4181 18.1546 18.2036 18.4192 18.2036ZM13.6288 18.2036H14.5868C14.8514 18.2036 15.0659 18.4181 15.0659 18.6827C15.0659 18.9472 14.8514 19.1617 14.5868 19.1617H13.6288C13.3642 19.1617 13.1497 18.9472 13.1497 18.6827C13.1497 18.4181 13.3642 18.2036 13.6288 18.2036Z" fill="#7ECD00"/>
<path d="M4.39355 21.2017C4.84194 21.1846 5.2634 21.0623 5.63394 20.8588C6.38124 20.4485 7.29305 20.4485 8.04036 20.8588C8.44088 21.0788 8.90086 21.2039 9.39006 21.2039C9.87926 21.2039 10.3392 21.0788 10.7398 20.8588C11.4871 20.4485 12.3989 20.4485 13.1462 20.8588C13.5467 21.0788 14.0067 21.2039 14.4959 21.2039C14.9851 21.2039 15.4451 21.0788 15.8456 20.8588C16.5929 20.4485 17.5047 20.4485 18.252 20.8588C18.6525 21.0788 19.1125 21.2039 19.6017 21.2039H19.604C17.5557 22.9476 14.9007 24 12 24C9.09803 24 6.44213 22.9468 4.39355 21.2017Z" fill="#0680AE"/>
<path d="M19.6039 21.2039C18.0695 22.5102 16.1946 23.4284 14.131 23.807C13.5132 23.7087 12.9102 23.5619 12.3263 23.3701C11.1325 22.9781 10.4763 22.0509 10.3151 21.0479C10.4626 20.9965 10.6045 20.9331 10.7397 20.8588C11.487 20.4485 12.3988 20.4485 13.1462 20.8588C13.5467 21.0788 14.0067 21.2039 14.4959 21.2039C14.9851 21.2039 15.445 21.0788 15.8456 20.8588C16.5929 20.4485 17.5047 20.4485 18.252 20.8588C18.6525 21.0788 19.1125 21.2039 19.6017 21.2039H19.6039Z" fill="#08A8F0"/>
<path d="M9.31731 18.6827C9.31731 18.9472 9.10285 19.1617 8.83827 19.1617H7.88019C7.61561 19.1617 7.40114 18.9472 7.40114 18.6827C7.40114 18.4181 7.61561 18.2036 7.88019 18.2036H8.83827C9.10285 18.2036 9.31731 18.4181 9.31731 18.6827ZM5.48498 19.1617H4.52689C4.26232 19.1617 4.04785 19.3762 4.04785 19.6407C4.04785 19.9053 4.26232 20.1198 4.52689 20.1198H5.48498C5.74955 20.1198 5.96402 19.9053 5.96402 19.6407C5.96402 19.3762 5.74955 19.1617 5.48498 19.1617Z" fill="#387232"/>
<path d="M18.9123 18.0129C18.7457 18.5411 18.4098 18.9172 18.1239 18.92C18.0986 18.902 18.0755 18.88 18.0544 18.8545C17.9509 18.9969 17.8307 19.096 17.7005 19.1385C17.5703 19.0961 17.4501 18.9969 17.3466 18.8545C17.3256 18.88 17.3024 18.902 17.2771 18.92C16.9912 18.9172 16.6553 18.5411 16.4887 18.0129C16.3221 17.4847 16.3813 16.9839 16.6139 16.8175C16.7438 16.8188 16.8839 16.897 17.0138 17.0315C17.1029 16.4132 17.3698 15.9394 17.7005 15.8315C18.0312 15.9394 18.298 16.4132 18.3872 17.0315C18.5171 16.897 18.6572 16.8188 18.7871 16.8175C19.0197 16.9839 19.0789 17.4847 18.9123 18.0129Z" fill="#FDE803"/>
<path d="M18.9124 18.0129C18.8328 18.2653 18.7145 18.4829 18.5815 18.6417C17.9402 18.4735 17.4611 17.805 17.4611 17.006C17.4611 16.5779 17.5986 16.1873 17.8249 15.891C18.097 16.0639 18.3096 16.4929 18.3872 17.0316C18.5172 16.8971 18.6573 16.8188 18.7871 16.8176C19.0198 16.9839 19.079 17.4847 18.9124 18.0129Z" fill="#FDF061"/>
<path d="M19.4261 19.8811C19.3248 20.1256 19.0446 20.2416 18.8002 20.1404L17.6404 19.66L16.2606 20.1493C16.0113 20.2377 15.7375 20.1073 15.649 19.858C15.5606 19.6086 15.691 19.3348 15.9404 19.2463L16.3991 19.0836C16.2917 18.9515 16.2583 18.7662 16.3281 18.5978C16.4293 18.3534 16.7095 18.2374 16.954 18.3386L17.667 18.634L18.1978 18.4457C18.4472 18.3573 18.721 18.4877 18.8094 18.7371C18.8532 18.8605 18.8433 18.9899 18.7919 19.0999L19.1669 19.2552C19.4113 19.3565 19.5273 19.6367 19.4261 19.8811Z" fill="#AA695D"/>
<path d="M18.792 19.0999L18.3281 18.9078L18.358 18.8972C18.5251 18.8379 18.6388 18.6954 18.669 18.5328C18.731 18.5856 18.7803 18.6548 18.8094 18.7371C18.8532 18.8605 18.8433 18.99 18.792 19.0999ZM19.4585 19.6354C19.3272 19.736 19.1474 19.7657 18.9835 19.6978L16.7706 18.7812C16.6068 18.7133 16.5007 18.5651 16.4789 18.4011C16.4143 18.4506 16.3614 18.5172 16.328 18.5979C16.2268 18.8423 16.3428 19.1225 16.5873 19.2238L16.9793 19.3862L16.1005 19.6978C15.9334 19.7571 15.7553 19.7181 15.6294 19.6108C15.6145 19.6908 15.6198 19.7757 15.649 19.858C15.7374 20.1073 16.0113 20.2378 16.2606 20.1493L17.6403 19.66L18.8002 20.1404C19.0446 20.2417 19.3248 20.1256 19.4261 19.8812C19.4595 19.8005 19.4693 19.716 19.4585 19.6354Z" fill="#5A443D"/>
<path d="M16.2606 20.1493C16.0113 20.2377 15.7375 20.1073 15.649 19.858C15.5606 19.6086 15.691 19.3348 15.9404 19.2464C16.1897 19.1579 16.4635 19.2884 16.552 19.5377C16.6404 19.787 16.51 20.0609 16.2606 20.1493ZM18.8002 20.1404C19.0446 20.2417 19.3248 20.1256 19.4261 19.8811C19.5273 19.6367 19.4113 19.3565 19.1668 19.2552C18.9224 19.154 18.6422 19.27 18.5409 19.5145C18.4397 19.7589 18.5558 20.0391 18.8002 20.1404Z" fill="#FFF2B4"/>
<path d="M16.0204 19.472C16.1451 19.4278 16.282 19.4931 16.3262 19.6177C16.3704 19.7424 16.3052 19.8793 16.1805 19.9235C16.0558 19.9677 15.9189 19.9025 15.8747 19.7779C15.8305 19.6532 15.8957 19.5163 16.0204 19.472ZM19.0751 19.4765C18.9529 19.4259 18.8128 19.484 18.7622 19.6062C18.7115 19.7284 18.7696 19.8685 18.8918 19.9191C19.014 19.9698 19.1541 19.9117 19.2047 19.7895C19.2554 19.6673 19.1973 19.5271 19.0751 19.4765Z" fill="#F1CA50"/>
</g>
</g>
<defs>
<clipPath id="clip0_108_8148">
<rect width="24" height="24" fill="white"/>
</clipPath>
<clipPath id="clip1_108_8148">
<rect width="24" height="24" fill="white"/>
</clipPath>
</defs>
</svg>
