<svg width="44" height="44" viewBox="0 0 44 44" fill="none" xmlns="http://www.w3.org/2000/svg">
<g clip-path="url(#clip0_184_4879)">
<path d="M22 28.6674C33.0969 28.6674 43.0388 23.7299 43.0388 23.7299C43.0484 23.4693 43.0549 23.208 43.0549 22.9451C43.0549 11.3168 33.6283 1.89026 22 1.89026C10.3718 1.89026 0.94519 11.3168 0.94519 22.9451C0.94519 23.2079 0.951636 23.4691 0.961261 23.7295C0.961261 23.7295 10.9031 28.6674 22 28.6674Z" fill="#FFD8DD"/>
<path d="M34.5918 22.9895C34.6407 22.9755 34.6876 22.9577 34.7333 22.9382V15.2734C34.6272 15.2239 34.5258 15.166 34.4316 15.0985C33.9853 14.7788 33.3969 14.7788 32.9505 15.0985C32.8175 15.1938 32.671 15.2709 32.5155 15.3296V24.9115C32.8622 23.985 33.6326 23.2636 34.5918 22.9895Z" fill="#BC6B58"/>
<path d="M9.53479 23.0293C10.4383 23.3289 11.1543 24.0274 11.4848 24.9098V15.2733C11.3787 15.2237 11.2773 15.1659 11.1831 15.0983C10.7368 14.7787 10.1484 14.7787 9.70211 15.0983C9.56907 15.1937 9.42264 15.2708 9.26709 15.3294V22.901C9.34933 22.9535 9.43854 22.9974 9.53479 23.0293Z" fill="#BC6B58"/>
<path d="M32.7911 20.4929C32.6918 20.4929 32.5911 20.4699 32.4968 20.4214L29.9294 19.1011C29.6127 18.9382 29.488 18.5496 29.6509 18.2328C29.8137 17.9161 30.2024 17.7915 30.5191 17.9542L33.0865 19.2745C33.4031 19.4374 33.5278 19.826 33.365 20.1428C33.2507 20.3651 33.025 20.4929 32.7911 20.4929Z" fill="#D18171"/>
<path d="M11.2089 20.4929C10.975 20.4929 10.7493 20.3652 10.635 20.1428C10.4721 19.826 10.5968 19.4374 10.9135 19.2745L13.4809 17.9542C13.7976 17.7915 14.1864 17.9161 14.3491 18.2328C14.512 18.5496 14.3873 18.9382 14.0706 19.1011L11.5032 20.4214C11.4089 20.4699 11.3081 20.4929 11.2089 20.4929Z" fill="#D18171"/>
<path d="M34.2777 22.3844C34.37 22.9226 34.6562 23.5084 35.4355 23.6867C35.9492 23.8041 36.3389 24.2329 36.4169 24.7539C36.5022 25.3241 36.7484 25.9721 37.3953 26.2635C37.9036 26.4925 38.2092 27.0224 38.1569 27.5774C38.0932 28.2549 38.2928 29.0902 39.3564 29.7015C40.025 29.6143 40.6678 29.8364 41.1335 30.2623C41.2804 30.3966 41.446 30.501 41.6229 30.5767C42.5404 28.3416 43.0844 25.9141 43.1777 23.3711C42.8317 23.0145 42.4016 22.739 41.9174 22.5783C41.345 22.3885 41.0003 21.805 41.1092 21.2119C41.1587 20.9423 41.1849 20.6623 41.1849 20.3748C41.1849 18.2348 39.7418 16.5001 37.9616 16.5001C36.1814 16.5001 34.7383 18.2349 34.7383 20.3748C34.7383 20.6416 34.7609 20.902 34.8036 21.1534C34.8872 21.6442 34.6723 22.1231 34.2777 22.3844Z" fill="#FDB4BA"/>
<path d="M37.1018 29.7403C37.5846 30.1817 38.2672 30.3039 38.8965 30.1254C38.974 30.1034 39.0533 30.0855 39.1345 30.0717C39.3276 30.0392 39.5188 30.0336 39.705 30.0506C38.3648 29.4315 38.1204 28.5038 38.1901 27.7642C38.2424 27.2092 37.9368 26.6793 37.4285 26.4503C36.7816 26.1589 36.5354 25.511 36.4501 24.9408C36.3721 24.4197 35.9824 23.991 35.4687 23.8735C34.7031 23.6984 34.4135 23.13 34.3161 22.5997C34.1775 22.7357 34.0052 22.8403 33.8059 22.8972C32.4913 23.273 31.5304 24.4884 31.5304 25.9212C31.5304 26.3268 31.6074 26.7141 31.7476 27.0697C31.9159 27.4971 31.82 27.9601 31.5325 28.2879C32.1646 28.2345 32.7666 28.4551 33.2089 28.8595C33.6917 29.3009 34.3743 29.4231 35.0036 29.2446C35.0811 29.2227 35.1606 29.2047 35.2417 29.191C35.9398 29.0733 36.6168 29.2968 37.1018 29.7403Z" fill="#FE99A0"/>
<path d="M5.00437 29.713C5.08559 29.7267 5.16491 29.7446 5.24234 29.7666C5.87166 29.945 6.55426 29.8229 7.03705 29.3815C7.37599 29.0716 7.80877 28.8697 8.27696 28.816C7.18727 28.2032 6.98317 27.3587 7.04754 26.6751C7.09979 26.12 6.79419 25.5901 6.28587 25.3612C5.63902 25.0698 5.39281 24.4218 5.30748 23.8516C5.22953 23.3306 4.8398 22.9018 4.32616 22.7844C3.72253 22.6463 3.4153 22.2636 3.26431 21.8479C3.12587 22.1738 2.85009 22.4346 2.48649 22.5386C1.95239 22.6913 1.47655 22.9825 1.09998 23.3707C1.19313 25.9138 1.73712 28.3415 2.65467 30.5767C2.83153 30.501 2.99713 30.3966 3.14409 30.2623C3.62912 29.8188 4.30605 29.5953 5.00437 29.713Z" fill="#FDB4BA"/>
<path d="M12.3914 26.7109C12.5315 26.3553 12.6085 25.968 12.6085 25.5625C12.6085 24.182 11.7152 22.9949 10.4593 22.5783C9.88691 22.3884 9.54213 21.8049 9.6511 21.2119C9.7006 20.9423 9.72672 20.6622 9.72672 20.3748C9.72672 18.2347 8.28366 16.5 6.50346 16.5C4.72327 16.5 3.2802 18.2348 3.2802 20.3748C3.2802 20.6415 3.30272 20.9019 3.3456 21.1533C3.40413 21.4974 3.3163 21.8357 3.12268 22.0974C3.28321 22.4823 3.58846 22.8268 4.15427 22.9561C4.66792 23.0736 5.05765 23.5024 5.13559 24.0234C5.22093 24.5936 5.46714 25.2416 6.11399 25.533C6.62231 25.762 6.92791 26.2919 6.87566 26.8469C6.81481 27.4928 6.99296 28.2823 7.93149 28.8843C8.23631 28.7983 8.56424 28.7761 8.89734 28.8323C8.97855 28.846 9.05787 28.8639 9.13538 28.8859C9.7647 29.0643 10.4473 28.9422 10.9301 28.5007C11.3724 28.0963 11.9744 27.8758 12.6066 27.9292C12.3189 27.6012 12.223 27.1383 12.3914 26.7109Z" fill="#FE99A0"/>
<path d="M41.5489 30.777C41.3477 30.7 41.1594 30.5874 40.9947 30.4369C40.5096 29.9934 39.8327 29.7699 39.1345 29.8876C39.0532 29.9013 38.9739 29.9193 38.8965 29.9413C38.2672 30.1197 37.5845 29.9975 37.1018 29.5561C36.6168 29.1126 35.9398 28.8891 35.2416 29.0069C35.1604 29.0205 35.081 29.0385 35.0035 29.0605C34.3742 29.2389 33.6916 29.1168 33.2088 28.6753C33.1726 28.6422 33.1351 28.6109 33.0969 28.5803L38.4631 36.0695C39.734 34.4775 40.7789 32.6974 41.5489 30.777Z" fill="#BC6B58"/>
<path d="M10.7914 28.6754C10.3086 29.1168 9.62596 29.2389 8.99664 29.0605C8.91921 29.0385 8.8398 29.0206 8.75859 29.0069C8.06026 28.8892 7.38342 29.1127 6.89839 29.5561C6.41559 29.9975 5.73299 30.1197 5.10367 29.9413C5.02624 29.9194 4.94692 29.9014 4.86571 29.8877C4.16738 29.7699 3.49045 29.9934 3.00542 30.4369C2.84068 30.5875 2.65239 30.7001 2.45129 30.7771C3.22138 32.6974 4.26612 34.4776 5.53705 36.0697L10.9033 28.5803C10.8651 28.6108 10.8275 28.6423 10.7914 28.6754Z" fill="#BC6B58"/>
<path d="M35.03 36.8817C33.0558 36.8482 31.192 35.8631 30.0441 34.2466C29.2265 33.0952 28.2566 31.6986 27.1611 30.0955C25.7956 28.0973 25.7497 25.8953 27.0247 23.5509C27.4317 22.8026 27.9157 22.1586 28.3392 21.664L22.0001 12.8168L5.43225 35.9394C6.40524 37.1783 7.51443 38.305 8.73698 39.2975C9.33785 39.2568 9.90822 39.4704 10.3295 39.8556C10.792 40.2785 11.4496 40.4136 12.0507 40.2361C12.1329 40.2119 12.2174 40.1922 12.304 40.1776C12.9814 40.0633 13.6382 40.2798 14.1092 40.7095C14.4798 41.0475 14.9704 41.1931 15.4613 41.1549C16.1511 40.5447 16.802 39.8859 17.4054 39.1789C19.9495 36.1982 21.5408 32.5322 21.9999 28.6675C22.459 32.5321 24.0504 36.1982 26.5944 39.1789C27.1979 39.8859 27.8488 40.5446 28.5384 41.1548C29.0301 41.1928 29.5209 41.046 29.8926 40.7077C30.3635 40.2792 31.0194 40.0635 31.6959 40.1776C31.7834 40.1924 31.8687 40.2122 31.9517 40.2368C32.552 40.4147 33.2084 40.2781 33.6704 39.8556C34.0916 39.4704 34.662 39.2568 35.2629 39.2975C36.3357 38.4266 37.3212 37.4521 38.204 36.3893C37.2993 36.737 36.239 36.9031 35.03 36.8817Z" fill="#FFC242"/>
<path d="M14.7367 41.7449C14.746 41.7802 14.7898 41.7899 14.8131 41.7619C15.1261 41.3848 15.5688 41.1203 16.0855 41.0332C17.1957 40.846 18.2503 41.5469 18.5231 42.6189C18.5305 42.648 18.5668 42.6559 18.5856 42.6325C18.8939 42.2479 19.3425 41.9774 19.8669 41.8888C20.336 41.8096 20.795 41.889 21.1893 42.0879C21.6211 42.3058 22.3796 42.3053 22.8105 42.0879C23.2049 41.889 23.664 41.8096 24.1329 41.8888C24.6771 41.9802 25.1362 42.2732 25.4719 42.6388C25.7367 41.5556 26.7974 40.8448 27.9144 41.0332C28.4397 41.1218 28.8883 41.3939 29.198 41.781C29.2159 41.8034 29.2502 41.7958 29.2571 41.7681C29.2697 41.7183 29.2845 41.6696 29.3004 41.6214C24.8477 38.0173 22.0001 32.5086 22.0001 26.3335C22.0001 32.5085 19.1524 38.0172 14.6996 41.6213C14.713 41.6619 14.7256 41.703 14.7367 41.7449Z" fill="#2A428B"/>
<path d="M22.6448 42.1556V10.7136C22.6448 10.3575 22.3561 10.0688 22 10.0688C21.6439 10.0688 21.3552 10.3575 21.3552 10.7136V42.1556C21.7369 42.2826 22.2635 42.2823 22.6448 42.1556Z" fill="#FFFBB3"/>
<path d="M22.7346 14.4287H21.2654C20.9093 14.4287 20.6206 14.1401 20.6206 13.784C20.6206 13.4278 20.9093 13.1392 21.2654 13.1392H22.7346C23.0907 13.1392 23.3794 13.4278 23.3794 13.784C23.3794 14.1401 23.0907 14.4287 22.7346 14.4287Z" fill="#FE3D97"/>
<path d="M22.7346 13.153H21.2654C20.9093 13.153 20.6206 12.8643 20.6206 12.5082C20.6206 12.1521 20.9093 11.8634 21.2654 11.8634H22.7346C23.0907 11.8634 23.3794 12.1521 23.3794 12.5082C23.3794 12.8644 23.0907 13.153 22.7346 13.153Z" fill="#FC77A6"/>
<path d="M25.3291 41.8178C25.0396 41.8903 24.7331 41.8863 24.4381 41.7912C24.3398 41.7595 24.238 41.7343 24.133 41.7167C23.6641 41.6376 23.205 41.717 22.8106 41.9158C22.3796 42.1332 21.6211 42.1337 21.1894 41.9158C20.795 41.717 20.336 41.6376 19.867 41.7167C19.7882 41.73 19.711 41.7475 19.6358 41.7688C19.0225 41.9427 18.36 41.8197 17.8883 41.3908C17.4174 40.9627 16.7618 40.7472 16.0856 40.8612C16.0067 40.8745 15.9295 40.892 15.8543 40.9133C15.2423 41.0868 14.5792 40.9662 14.1093 40.5376C13.6383 40.1079 12.9815 39.8914 12.3041 40.0057C12.2175 40.0203 12.133 40.0399 12.0508 40.0642C11.4497 40.2417 10.7922 40.1066 10.3296 39.6837C9.86543 39.2592 9.2203 39.0429 8.55273 39.146C12.2002 42.1769 16.887 44 22.0001 44C23.3695 44 24.7079 43.868 26.0044 43.6182C25.0074 43.1751 25.1738 42.264 25.3291 41.8178Z" fill="#BC6B58"/>
<path d="M35.3827 15.711C34.8417 15.17 34.6292 14.3742 34.8278 13.6343C34.9864 13.0437 34.7004 12.4407 34.148 12.2004C33.8544 12.0728 33.5897 11.8923 33.3611 11.6638C32.5556 10.8584 32.3781 9.60238 32.9297 8.60954C33.2335 8.06237 33.0727 7.37316 32.5554 7.00638C32.3798 6.88177 32.2126 6.74057 32.0585 6.58648C31.454 5.98191 31.0814 5.20366 31.0067 4.43848C30.897 4.7298 30.6583 4.96502 30.3393 5.0562C29.2386 5.37081 28.4338 6.38848 28.4338 7.58826C28.4338 7.92788 28.4984 8.25213 28.6157 8.5499C28.7996 9.01671 28.608 9.53483 28.1735 9.78542C27.5049 10.171 27.0548 10.8926 27.0548 11.7201C27.0548 12.7162 27.7141 13.5815 28.6441 13.8595C29.0297 13.9747 29.3527 14.2507 29.5292 14.6124C29.8917 15.355 30.6528 15.8669 31.535 15.8669C32.0188 15.8669 32.4662 15.7129 32.8314 15.4513C33.3564 15.0751 34.0487 15.0752 34.5739 15.4513C34.8502 15.6492 35.1738 15.7851 35.5244 15.8398C35.4757 15.7991 35.4281 15.7564 35.3827 15.711Z" fill="#FE99A0"/>
<path d="M40.1938 11.7202C40.1938 10.8927 39.7438 10.1711 39.0752 9.78545C38.6406 9.53485 38.4491 9.01665 38.633 8.54992C38.7504 8.25215 38.8149 7.92791 38.8149 7.58828C38.8149 6.43234 38.0669 5.43838 37.0152 5.08956C36.536 4.93058 36.2473 4.44202 36.3384 3.94548C36.3799 3.7198 36.4018 3.4852 36.4018 3.24448C36.4017 1.4526 35.1934 0 33.7028 0C32.2121 0 31.0039 1.4526 31.0039 3.24448C31.0039 3.46784 31.0228 3.68586 31.0585 3.89641C31.108 4.18722 31.0327 4.4733 30.8673 4.69322C30.9887 5.40306 31.3486 6.11918 31.9371 6.70768C32.1012 6.87173 32.2751 7.018 32.4561 7.1463C32.899 7.46032 33.0432 8.05157 32.7796 8.52629C32.2023 9.5657 32.3588 10.9041 33.2398 11.7851C33.4892 12.0346 33.7747 12.2252 34.0796 12.3578C34.5574 12.5655 34.7972 13.0867 34.6621 13.5899C34.4621 14.3351 34.6405 15.1596 35.1961 15.7623C35.4088 15.8298 35.6351 15.8667 35.8703 15.8667C36.7635 15.8667 37.5325 15.3422 37.8895 14.5845C38.0541 14.2353 38.3391 13.953 38.7032 13.8247C39.5715 13.5188 40.1938 12.6931 40.1938 11.7202Z" fill="#FDB4BA"/>
<path d="M12.1341 15.711C11.5932 15.17 11.3806 14.3742 11.5792 13.6343C11.7379 13.0437 11.4519 12.4407 10.8995 12.2004C10.6059 12.0728 10.3411 11.8923 10.1125 11.6638C9.30705 10.8584 9.12959 9.60238 9.68113 8.60954C9.98501 8.06237 9.82413 7.37316 9.30688 7.00638C9.13131 6.88177 8.96407 6.74057 8.81007 6.58648C8.2055 5.98191 7.83296 5.20366 7.75828 4.43848C7.64854 4.7298 7.40989 4.96502 7.09081 5.0562C5.99003 5.37081 5.18531 6.38848 5.18531 7.58826C5.18531 7.92788 5.24985 8.25213 5.36716 8.5499C5.55106 9.01671 5.35951 9.53483 4.92492 9.78542C4.25633 10.171 3.80627 10.8926 3.80627 11.7201C3.80627 12.7162 4.46559 13.5815 5.39552 13.8595C5.78103 13.9747 6.10424 14.2507 6.28067 14.6124C6.64316 15.355 7.40431 15.8669 8.28645 15.8669C8.77028 15.8669 9.21767 15.7129 9.58282 15.4513C10.1079 15.0751 10.8002 15.0752 11.3254 15.4513C11.6017 15.6492 11.9252 15.7851 12.2758 15.8398C12.2272 15.7991 12.1797 15.7564 12.1341 15.711Z" fill="#FE99A0"/>
<path d="M16.9453 11.7202C16.9453 10.8927 16.4953 10.1711 15.8267 9.78545C15.3921 9.53485 15.2005 9.01665 15.3844 8.54992C15.5017 8.25215 15.5664 7.92791 15.5664 7.58828C15.5664 6.43234 14.8184 5.43838 13.7667 5.08956C13.2875 4.93058 12.9987 4.44202 13.0899 3.94548C13.1314 3.7198 13.1532 3.4852 13.1532 3.24448C13.1531 1.4526 11.9449 0 10.4543 0C8.9637 0 7.75533 1.4526 7.75533 3.24448C7.75533 3.46784 7.77415 3.68586 7.80999 3.89641C7.85949 4.18722 7.78412 4.4733 7.61877 4.69322C7.74012 5.40306 8.10011 6.11918 8.6887 6.70768C8.85275 6.87173 9.02669 7.018 9.20767 7.1463C9.65059 7.46032 9.7948 8.05157 9.53114 8.52629C8.95381 9.5657 9.11031 10.9041 9.99134 11.7851C10.2407 12.0346 10.5262 12.2252 10.8311 12.3578C11.3089 12.5655 11.5488 13.0867 11.4137 13.5899C11.2136 14.3351 11.392 15.1596 11.9476 15.7623C12.1603 15.8298 12.3867 15.8667 12.6219 15.8667C13.515 15.8667 14.2841 15.3422 14.6411 14.5845C14.8056 14.2353 15.0907 13.953 15.4547 13.8247C16.3229 13.5188 16.9453 12.6931 16.9453 11.7202Z" fill="#FDB4BA"/>
<path d="M27.0548 30.1682C28.3148 32.0119 29.2553 33.3582 29.9391 34.3212C31.1129 35.9744 33.0006 36.9763 35.0279 37.0106C35.9934 37.0271 37.0471 36.9254 38.0376 36.5847C38.218 36.3727 38.3958 36.1585 38.5679 35.9394L28.2614 21.5553C26.8212 23.2289 24.6524 26.6529 27.0548 30.1682Z" fill="#FEF156"/>
<path d="M33.6706 39.6837C33.2085 40.1061 32.5522 40.2428 31.9519 40.0649C31.869 40.0403 31.7837 40.0205 31.6961 40.0057C31.0196 39.8916 30.3638 40.1073 29.8929 40.5357C29.4216 40.9647 28.7589 41.0871 28.1457 40.9133C28.0706 40.892 27.9934 40.8745 27.9146 40.8612C27.2356 40.7466 26.5773 40.9644 26.1061 41.3962C25.8338 41.6455 25.4974 41.8051 25.1455 41.8525C24.9916 42.3178 24.856 43.2177 25.8857 43.6409C29.4767 42.9707 32.7471 41.3899 35.4474 39.146C34.7799 39.0429 34.1347 39.2592 33.6706 39.6837Z" fill="#D18171"/>
</g>
<defs>
<clipPath id="clip0_184_4879">
<rect width="44" height="44" fill="white"/>
</clipPath>
</defs>
</svg>
