<svg width="121" height="120" viewBox="0 0 121 120" fill="none" xmlns="http://www.w3.org/2000/svg">
<rect x="0.5" width="120" height="120" rx="60" fill="#FACCCC"/>
<mask id="mask0_359_7686" style="mask-type:alpha" maskUnits="userSpaceOnUse" x="0" y="0" width="121" height="120">
<rect x="0.5" width="120" height="120" rx="60" fill="#B1E0FC"/>
</mask>
<g mask="url(#mask0_359_7686)">
<path fill-rule="evenodd" clip-rule="evenodd" d="M75.5785 101.273H45.4216V133.143C50.2435 134.363 55.303 135.007 60.5126 135.007C65.7159 135.007 70.7566 134.363 75.5785 133.143V101.273Z" fill="#2E274F"/>
<path fill-rule="evenodd" clip-rule="evenodd" d="M55.4968 134.788C57.1416 134.932 58.8177 135.001 60.5063 135.001C62.1573 135.001 63.8021 134.926 65.4282 134.807L63.233 120.266L60.4625 119.266L57.692 120.266L55.4968 134.788Z" fill="#FA6676"/>
<path fill-rule="evenodd" clip-rule="evenodd" d="M65.6472 113.95L63.2332 120.273H60.4626H57.6921L55.3093 113.95L56.5038 112.924L60.4626 111.967L64.4277 112.924L65.6472 113.95Z" fill="#C3556C"/>
<path fill-rule="evenodd" clip-rule="evenodd" d="M99.5 121.111V114.494C99.5 107.214 93.5524 101.267 86.2728 101.267H66.5289L65.5032 101.911L69.1806 113.299L66.7915 134.694C79.1369 133.431 90.4004 128.534 99.5 121.111ZM21.5 121.111V114.494C21.5 107.214 27.4663 101.267 34.7272 101.267H54.4711L55.4968 101.911L51.8194 113.299L54.2085 134.694C41.8631 133.431 30.6183 128.534 21.5 121.111Z" fill="#F7E1DC"/>
<path fill-rule="evenodd" clip-rule="evenodd" d="M68.0798 109.866L69.1805 113.305L66.7915 134.7C69.2994 134.438 71.7822 134.031 74.19 133.481L79.0118 124.144L73.1393 105.494C71.3069 106.019 69.6058 107.621 68.0798 109.866Z" fill="#E5BBB3"/>
<path fill-rule="evenodd" clip-rule="evenodd" d="M60.5126 70.1592C66.3851 70.1592 71.1882 74.956 71.1882 80.8348V101.273C71.1882 107.145 66.3914 111.942 60.5126 111.942C54.6401 111.942 49.8433 107.145 49.8433 101.273V80.8348C49.837 74.9623 54.6401 70.1592 60.5126 70.1592Z" fill="#FBBEAC"/>
<path fill-rule="evenodd" clip-rule="evenodd" d="M60.5126 70.1592C66.3851 70.1592 71.1882 74.956 71.1882 80.8348V98.3585C68.3676 99.6718 65.2657 100.41 61.9698 100.41C57.5044 100.41 53.3268 99.0464 49.8433 96.6824V80.8285C49.837 74.9623 54.6401 70.1592 60.5126 70.1592Z" fill="#ED8E86"/>
<path fill-rule="evenodd" clip-rule="evenodd" d="M32.2944 67.0072C32.2006 70.7533 35.1587 73.8866 38.9049 73.9804C38.9987 73.9804 39.1175 73.9804 39.2176 73.9804C38.5234 71.5476 38.1669 69.1085 38.1669 66.7695V64.6932C38.1669 60.4467 32.457 60.7282 32.2944 67.0072Z" fill="#ED8E86"/>
<path fill-rule="evenodd" clip-rule="evenodd" d="M88.712 67.0072C88.8308 70.7533 85.8477 73.8866 82.1015 73.9804C82.0077 73.9804 81.9076 73.9804 81.7888 73.9804C82.483 71.5476 82.8645 69.1085 82.8645 66.7695V64.6932C82.8583 60.4467 88.5682 60.7282 88.712 67.0072Z" fill="#ED8E86"/>
<path fill-rule="evenodd" clip-rule="evenodd" d="M60.5126 27.5693C48.2172 27.5693 38.167 37.9823 38.167 50.6842V71.6914C38.167 84.3933 48.2172 94.7812 60.5126 94.7812C72.7829 94.7812 82.8581 84.3933 82.8581 71.6914V50.6779C82.8581 37.976 72.7829 27.5693 60.5126 27.5693Z" fill="#FBBEAC"/>
<path fill-rule="evenodd" clip-rule="evenodd" d="M73.7398 71.4475C71.307 71.4725 69.3432 73.4988 69.3933 75.9379C69.4433 78.3957 71.4696 80.3282 73.9087 80.2844C76.3415 80.2344 78.299 78.2331 78.2552 75.7753C78.2052 73.3362 76.1976 71.4037 73.7398 71.4475Z" fill="#ED8E86"/>
<path fill-rule="evenodd" clip-rule="evenodd" d="M47.0477 71.9541C44.6149 72.0041 42.6762 74.0054 42.7012 76.4632C42.7512 78.896 44.7775 80.8535 47.2166 80.8097C49.6744 80.7597 51.6069 78.7334 51.5631 76.3006C51.5131 73.8615 49.5055 71.904 47.0477 71.9541Z" fill="#ED8E86"/>
<path fill-rule="evenodd" clip-rule="evenodd" d="M61.6569 70.0152C62.0885 71.2535 62.8514 73.4799 62.7764 73.8364C62.6826 74.3117 60.1059 74.4556 59.4368 73.7176C58.9802 73.2173 59.5556 71.3536 60.0309 70.1341C60.7063 68.4392 61.0628 68.3704 61.6569 70.0152Z" fill="#FBD5C9"/>
<path d="M52.7765 56.1185C53.2769 56.3311 53.4958 56.9315 53.2519 57.4068C53.0392 57.9071 52.4638 58.126 51.9635 57.8821C51.9635 57.8821 49.0241 56.5 46.2349 58.2636C45.7595 58.5513 45.1592 58.4074 44.8715 57.9509C44.5838 57.5006 44.7276 56.9002 45.1842 56.5938C48.8866 54.2798 52.7765 56.1185 52.7765 56.1185Z" fill="#403867"/>
<path d="M75.7912 56.5501C76.2478 56.8128 76.4104 57.4132 76.1477 57.8885C75.885 58.3388 75.3097 58.5077 74.8344 58.27C74.8344 58.245 72.0201 56.6252 69.0807 58.1512C68.5804 58.4138 68.005 58.2262 67.7423 57.7447C67.5047 57.2694 67.6923 56.669 68.1738 56.4313C72.0451 54.405 75.7662 56.5501 75.7912 56.5501Z" fill="#403867"/>
<path fill-rule="evenodd" clip-rule="evenodd" d="M85.8665 61.9476C85.8665 61.9476 82.8583 62.0164 82.8583 64.6931C82.8583 64.6931 80.732 61.9226 81.1635 58.4641C81.1635 58.4641 75.4348 51.7786 75.6975 44.305C75.9602 36.8315 81.7889 35.2305 81.7889 35.2305C95.7291 39.3143 85.8665 49.2019 85.8665 61.9476Z" fill="#403867"/>
<path fill-rule="evenodd" clip-rule="evenodd" d="M35.1587 61.9476C35.1587 61.9476 38.1669 62.0164 38.1669 64.6931C38.1669 64.6931 40.2682 61.9226 39.8367 58.4641C39.8367 58.4641 45.5654 51.7786 45.3027 44.305C45.04 36.8315 39.2363 35.2305 39.2363 35.2305C25.2711 39.3143 35.1587 49.2019 35.1587 61.9476Z" fill="#403867"/>
<path fill-rule="evenodd" clip-rule="evenodd" d="M60.5125 111.942L68.036 119.178C68.036 119.178 70.8316 120.804 71.951 118.44C73.0517 116.076 76.4164 101.273 76.4164 101.273L71.188 99.3403C71.1818 99.3341 70.9004 108.484 60.5125 111.942Z" fill="#403867"/>
<path d="M90.1439 104.825C90.2627 104.706 90.4566 104.681 90.5754 104.8C90.6942 104.919 90.6942 105.088 90.6004 105.207C90.5754 105.232 87.905 108.021 87.905 114.757V128.584C87.7173 128.703 87.5235 128.797 87.3108 128.897V114.763C87.2983 107.815 90.1439 104.825 90.1439 104.825Z" fill="#E5BBB3"/>
<path fill-rule="evenodd" clip-rule="evenodd" d="M52.9452 109.866L51.8257 113.305L54.2147 134.7C51.7069 134.438 49.249 134.031 46.8162 133.481L41.9944 124.144L47.8919 105.494C49.6993 106.019 51.4129 107.621 52.9452 109.866Z" fill="#E5BBB3"/>
<path fill-rule="evenodd" clip-rule="evenodd" d="M60.5126 111.942L52.9702 119.178C52.9702 119.178 50.1747 120.804 49.0802 118.44C47.9608 116.076 44.5898 101.273 44.5898 101.273L49.8432 99.3403C49.837 99.3341 50.1246 108.484 60.5126 111.942Z" fill="#403867"/>
<path d="M30.8561 104.825C30.7373 104.706 30.5434 104.681 30.4246 104.8C30.3057 104.919 30.3057 105.088 30.3995 105.207C30.4246 105.232 33.095 108.021 33.095 114.757V128.584C33.2889 128.703 33.5015 128.797 33.6891 128.897V114.763C33.7017 107.815 30.8561 104.825 30.8561 104.825Z" fill="#E5BBB3"/>
<path fill-rule="evenodd" clip-rule="evenodd" d="M49.3367 68.9395C50.8627 68.9395 52.1072 67.6762 52.1072 66.169C52.1072 64.643 50.8689 63.3984 49.3367 63.3984C47.8107 63.3984 46.5662 64.6367 46.5662 66.169C46.5662 67.6762 47.8107 68.9395 49.3367 68.9395Z" fill="#403867"/>
<path fill-rule="evenodd" clip-rule="evenodd" d="M71.6633 68.9395C73.1893 68.9395 74.4339 67.6762 74.4339 66.169C74.4339 64.643 73.1893 63.3984 71.6633 63.3984C70.1624 63.3984 68.8928 64.6367 68.8928 66.169C68.8928 67.6762 70.1561 68.9395 71.6633 68.9395Z" fill="#403867"/>
<path fill-rule="evenodd" clip-rule="evenodd" d="M65.3843 78.7334C65.3843 81.4289 63.2142 83.6303 60.5125 83.6303C57.817 83.6303 55.6218 81.4351 55.6218 78.7334C55.6218 78.2581 56.0283 77.8516 56.5287 77.8516H64.5025C64.9778 77.8516 65.3843 78.2518 65.3843 78.7334Z" fill="white"/>
<path fill-rule="evenodd" clip-rule="evenodd" d="M79.5435 61.1095C77.8487 59.7023 74.3152 59.7023 72.5265 59.6023C70.6628 59.5335 65.1718 60.0776 63.7647 62.4416C62.3325 64.8056 63.527 69.3398 65.891 71.9915C68.3051 74.712 72.095 75.7376 75.6097 74.4493C79.1433 73.161 80.0501 70.0527 80.5504 68.0514C81.0445 66.0502 81.2634 62.5479 79.5435 61.1095Z" fill="#403867"/>
<path fill-rule="evenodd" clip-rule="evenodd" d="M55.2843 71.9978C57.6233 69.3461 58.8178 64.8119 57.4107 62.4479C55.9785 60.0839 50.4875 59.5335 48.6238 59.6086C46.8351 59.7024 43.3204 59.7024 41.6068 61.1158C39.8869 62.5479 40.0996 66.0564 40.6061 68.064C41.1065 70.0715 42.0383 73.1735 45.5468 74.4618C49.0741 75.7502 52.8702 74.7183 55.2843 71.9978Z" fill="#403867"/>
<path d="M80.8756 60.4654C80.0188 60.3716 76.0538 59.2959 73.6397 59.2959C69.8686 59.2959 68.4552 59.6336 66.6915 60.1339C64.9029 60.6593 63.896 61.3785 63.3957 61.3034C62.8703 61.2346 61.4632 60.9907 60.5751 60.9907C59.6683 60.9907 58.2611 61.2284 57.7608 61.3034C57.2355 61.3785 56.2348 60.6593 54.4399 60.1339C52.67 59.6336 51.2629 59.2959 47.4917 59.2959C45.0589 59.2959 41.0438 60.3716 40.187 60.4654C39.3302 60.5842 38.5422 60.6593 38.5422 60.6593V62.6168C38.5422 62.6168 39.3052 62.6856 39.4991 63.5236C39.6867 64.3366 39.8306 67.8701 40.7186 69.9965C41.7443 72.4543 43.3453 74.243 46.1158 75.0122C48.9114 75.8002 51.8445 75.2249 53.7332 73.9365C55.1654 72.9797 56.4787 71.5475 57.5044 69.5212C58.7677 66.9946 59.1304 64.7494 59.1304 64.7494C59.1304 64.7494 58.5801 64.174 58.8928 63.3422C59.1054 62.7231 59.8496 62.6293 60.5876 62.6293C61.3256 62.6293 62.0448 62.7231 62.2825 63.3422C62.5701 64.1803 62.0198 64.7494 62.0198 64.7494C62.0198 64.7494 62.3763 66.9946 63.6646 69.5212C64.6652 71.5538 66.0036 72.9859 67.4107 73.9365C69.2995 75.2249 72.2326 75.8002 75.0281 75.0122C77.7987 74.2492 79.3997 72.4543 80.4003 69.9965C81.3072 67.8701 81.401 64.3366 81.5698 63.5236C81.7574 62.6856 82.4767 62.6168 82.4767 62.6168V60.6593C82.4767 60.6593 81.7387 60.5842 80.8756 60.4654ZM54.9277 71.7101C52.6388 74.2868 49.0802 75.2436 45.7594 74.0241C42.4385 72.8046 41.5817 69.8964 41.1064 68.0077C40.6498 66.1253 40.4372 62.8294 42.0632 61.4911C43.6643 60.1527 46.9789 60.1277 48.655 60.0839C50.4186 59.9901 55.5782 60.5154 56.9165 62.7356C58.2424 64.9808 57.1229 69.2273 54.9277 71.7101ZM80.0438 68.014C79.5685 69.9027 78.7055 72.8108 75.3909 74.0303C72.095 75.2499 68.5115 74.293 66.2475 71.7164C64.0273 69.2335 62.9079 64.987 64.24 62.7419C65.5783 60.5217 70.7566 59.9963 72.5015 60.0902C74.1963 60.1402 77.4922 60.1652 79.1182 61.4973C80.713 62.8294 80.5191 66.1253 80.0438 68.014Z" fill="#403867"/>
<path fill-rule="evenodd" clip-rule="evenodd" d="M76.1727 61.0658C74.8343 60.7781 73.3771 60.7531 72.4453 60.7281C71.8261 60.7031 70.7004 60.7531 69.5121 60.9657L64.4526 66.0252C64.6215 67.6513 65.3345 69.4649 66.3851 70.8471L76.1727 61.0658ZM68.2989 72.642C69.0118 73.1173 69.7998 73.48 70.6379 73.6676L79.5873 64.7181C79.5123 63.7613 79.2559 62.8544 78.7055 62.2353L68.2989 72.642Z" fill="#6E5398"/>
<path fill-rule="evenodd" clip-rule="evenodd" d="M56.6912 64.5742C56.6224 64.0488 56.4536 63.5735 56.2159 63.167C56.047 62.8794 55.8094 62.6167 55.4967 62.379L44.99 72.9108C45.3027 73.1047 45.6591 73.2735 46.0657 73.4111C46.5222 73.605 46.9975 73.7238 47.4728 73.7926L56.6912 64.5742ZM52.9451 61.2283C51.3003 60.7968 49.5554 60.6779 48.6923 60.728C48.142 60.753 47.379 60.753 46.591 60.8218L41.5315 65.8813C41.5815 66.6443 41.7004 67.3635 41.8442 67.9326C42.0568 68.8394 42.3945 70.0089 43.0887 71.0846L52.9451 61.2283Z" fill="#6E5398"/>
<path fill-rule="evenodd" clip-rule="evenodd" d="M45.278 45.3307C45.278 45.3307 64.4278 49.1019 81.0884 42.2975C81.0884 42.2975 84.1216 35.0617 82.6144 29.308C81.0884 23.5543 71.87 15.8431 67.192 15.1051C62.489 14.3671 63.5147 17.7568 63.5147 17.7568C63.5147 17.7568 55.1343 18.3509 45.3905 23.104C35.6468 27.832 34.4085 32.7227 35.8657 37.9322L45.278 45.3307Z" fill="#403965"/>
<path d="M35.5842 32.5791C47.9734 37.6199 65.7411 41.1721 83.0021 31.6973C82.9333 30.8843 82.8145 30.0963 82.6206 29.3083C82.1203 27.4446 80.807 25.3683 79.1121 23.3857C63.5959 33.3484 48.1673 32.5103 36.9976 29.4521C36.2784 30.484 35.8281 31.5285 35.5842 32.5791Z" fill="#4D3F74"/>
</g>
</svg>
